<svg width="27" height="24" viewBox="0 0 27 24" fill="none" xmlns="http://www.w3.org/2000/svg">
<path id="Vector" d="M13.5 16.536L13.5 7.08901M8.14286 11.8125H18.8571M26 17.7956C26 19.5592 26 20.441 25.6107 21.1146C25.2683 21.7071 24.722 22.1889 24.05 22.4908C23.286 22.834 22.2859 22.834 20.2857 22.834L6.71428 22.834C4.7141 22.834 3.714 22.834 2.95003 22.4908C2.27803 22.1889 1.73167 21.7071 1.38926 21.1146C1 20.441 0.999999 19.5592 0.999999 17.7956L1 5.82941C1 4.06581 0.999999 3.18401 1.38926 2.5104C1.73167 1.91788 2.27803 1.43614 2.95003 1.13424C3.714 0.791016 4.7141 0.791016 6.71429 0.791016L20.2857 0.791016C22.2859 0.791016 23.286 0.791015 24.05 1.13424C24.722 1.43614 25.2683 1.91788 25.6107 2.5104C26 3.184 26 4.06581 26 5.82941L26 17.7956Z" stroke="#969FA8" stroke-linecap="round" stroke-linejoin="round"/>
</svg>
