<svg xmlns="http://www.w3.org/2000/svg" width="39" height="35" viewBox="0 0 39 35" fill="white">
<path d="M18.6006 12.1011C18.9534 11.7679 18.7714 11.3327 18.1942 11.1291C17.617 10.9255 16.8632 11.0305 16.5105 11.3637L18.6006 12.1011ZM11.7222 17.2432L10.6771 16.8745C10.4376 17.1008 10.4376 17.3855 10.6771 17.6119L11.7222 17.2432ZM16.5105 23.1226C16.8632 23.4558 17.617 23.5609 18.1942 23.3572C18.7714 23.1536 18.9534 22.7184 18.6006 22.3852L16.5105 23.1226ZM27.2778 17.9502C27.9542 17.9502 28.5026 17.6337 28.5026 17.2432C28.5026 16.8527 27.9542 16.5361 27.2778 16.5361L27.2778 17.9502ZM38.2248 17.2432C38.2248 12.5695 36.222 8.30433 32.9195 5.18442C29.6298 2.07665 24.9206 0.00387692 19.5 0.00387692L19.5 1.418C23.7443 1.418 27.7852 3.04608 30.8293 5.9218C33.8605 8.78539 35.7752 12.7863 35.7752 17.2432H38.2248ZM19.5 0.00387692C14.0794 0.00387692 9.37024 2.07665 6.08055 5.18442C2.77801 8.30433 0.775228 12.5695 0.775228 17.2432H3.22477C3.22477 12.7863 5.1395 8.78539 8.17071 5.9218C11.2148 3.04608 15.2557 1.418 19.5 1.418L19.5 0.00387692ZM0.775228 17.2432C0.775228 21.9168 2.77801 26.182 6.08055 29.3019C9.37024 32.4097 14.0794 34.4825 19.5 34.4825L19.5 33.0683C15.2557 33.0683 11.2148 31.4402 8.17071 28.5645C5.1395 25.7009 3.22477 21.7 3.22477 17.2432H0.775228ZM19.5 34.4825C24.9206 34.4825 29.6298 32.4097 32.9195 29.3019C36.222 26.182 38.2248 21.9168 38.2248 17.2432H35.7752C35.7752 21.7 33.8605 25.7009 30.8293 28.5645C27.7852 31.4402 23.7443 33.0683 19.5 33.0683L19.5 34.4825ZM16.5105 11.3637L10.6771 16.8745L12.7673 17.6119L18.6006 12.1011L16.5105 11.3637ZM10.6771 17.6119L16.5105 23.1226L18.6006 22.3852L12.7673 16.8745L10.6771 17.6119ZM11.7222 17.9502L27.2778 17.9502L27.2778 16.5361H11.7222L11.7222 17.9502Z" />
</svg>