<svg xmlns="http://www.w3.org/2000/svg" width="39" height="35" viewBox="0 0 39 35" fill="none">
  <path d="M20.3994 22.3852C20.0466 22.7184 20.2286 23.1536 20.8058 23.3572C21.383 23.5609 22.1368 23.4558 22.4895 23.1226L20.3994 22.3852ZM27.2778 17.2432L28.3229 17.6119C28.5624 17.3855 28.5624 17.1008 28.3229 16.8745L27.2778 17.2432ZM22.4895 11.3637C22.1368 11.0305 21.383 10.9255 20.8058 11.1291C20.2286 11.3327 20.0466 11.7679 20.3994 12.1011L22.4895 11.3637ZM11.7222 16.5361C11.0458 16.5361 10.4974 16.8527 10.4974 17.2432C10.4974 17.6337 11.0458 17.9502 11.7222 17.9502L11.7222 16.5361ZM0.775229 17.2432C0.775229 21.9168 2.77801 26.182 6.08055 29.3019C9.37024 32.4097 14.0794 34.4825 19.5 34.4825L19.5 33.0683C15.2557 33.0683 11.2148 31.4402 8.17072 28.5645C5.1395 25.7009 3.22477 21.7 3.22477 17.2432H0.775229ZM19.5 34.4825C24.9206 34.4825 29.6298 32.4097 32.9195 29.3019C36.222 26.182 38.2248 21.9168 38.2248 17.2432H35.7752C35.7752 21.7 33.8605 25.7009 30.8293 28.5645C27.7852 31.4402 23.7443 33.0683 19.5 33.0683L19.5 34.4825ZM38.2248 17.2432C38.2248 12.5695 36.222 8.30433 32.9195 5.18442C29.6298 2.07666 24.9206 0.003878 19.5 0.003878L19.5 1.418C23.7443 1.418 27.7852 3.04609 30.8293 5.9218C33.8605 8.78539 35.7752 12.7863 35.7752 17.2432H38.2248ZM19.5 0.003878C14.0794 0.003878 9.37024 2.07666 6.08055 5.18442C2.77801 8.30433 0.775229 12.5695 0.775229 17.2432H3.22477C3.22477 12.7863 5.1395 8.78539 8.17072 5.9218C11.2148 3.04609 15.2557 1.418 19.5 1.418L19.5 0.003878ZM22.4895 23.1226L28.3229 17.6119L26.2327 16.8745L20.3994 22.3852L22.4895 23.1226ZM28.3229 16.8745L22.4895 11.3637L20.3994 12.1011L26.2327 17.6119L28.3229 16.8745ZM27.2778 16.5361L11.7222 16.5361L11.7222 17.9502L27.2778 17.9502L27.2778 16.5361Z" fill="white"/>
</svg>