<svg width="24" height="24" viewBox="0 0 24 24" fill="#969FA8" xmlns="http://www.w3.org/2000/svg">
<g id="magnifier-search-02">
<path id="union-1" clip-rule="evenodd" d="M9.92857 17.3571C5.82588 17.3571 2.5 14.0313 2.5 9.92857C2.5 5.82588 5.82588 2.5 9.92857 2.5C14.0313 2.5 17.3571 5.82588 17.3571 9.92857C17.3571 11.6189 16.7917 13.1785 15.8409 14.4267L21.2071 19.7929C21.5976 20.1834 21.5976 20.8166 21.2071 21.2071C20.8166 21.5976 20.1834 21.5976 19.7929 21.2071L14.4267 15.8409C13.1785 16.7917 11.6189 17.3571 9.92857 17.3571ZM4.5 9.92857C4.5 12.9267 6.93045 15.3571 9.92857 15.3571C11.4279 15.3571 12.7837 14.7506 13.7672 13.7672C14.7506 12.7837 15.3571 11.4279 15.3571 9.92857C15.3571 6.93045 12.9267 4.5 9.92857 4.5C6.93045 4.5 4.5 6.93045 4.5 9.92857Z" />
</g>
</svg>
