<svg width="47" height="44" viewBox="0 0 47 44" fill="none" xmlns="http://www.w3.org/2000/svg">
<g filter="url(#filter0_d_478_46)">
<ellipse cx="23.5" cy="17.5" rx="17.5" ry="16.5" transform="rotate(-180 23.5 17.5)" fill="#D9D9D9"/>
<path d="M22.6001 12.92C22.9533 12.587 22.772 12.1517 22.1951 11.9478C21.6182 11.7439 20.8642 11.8485 20.511 12.1816L22.6001 12.92ZM15.7222 18.0508L14.6777 17.6816C14.4374 17.9082 14.4374 18.1934 14.6777 18.42L15.7222 18.0508ZM20.511 23.92C20.8642 24.253 21.6182 24.3577 22.1951 24.1538C22.772 23.9499 22.9533 23.5146 22.6001 23.1816L20.511 23.92ZM31.2778 18.7578C31.9542 18.7578 32.5026 18.4413 32.5026 18.0508C32.5026 17.6603 31.9542 17.3437 31.2778 17.3437L31.2778 18.7578ZM42.2248 18.0508C42.2248 13.3858 40.2218 9.12846 36.9189 6.01431C33.6287 2.91209 28.9195 0.843721 23.5 0.843721L23.5 2.25784C27.7455 2.25784 31.7863 3.88313 34.8298 6.75273C37.8607 9.6104 39.7752 13.6031 39.7752 18.0508H42.2248ZM23.5 0.843721C18.0805 0.843721 13.3713 2.91209 10.0811 6.01431C6.77821 9.12846 4.77523 13.3858 4.77523 18.0508H7.22477C7.22477 13.6031 9.1393 9.6104 12.1702 6.75273C15.2137 3.88313 19.2545 2.25784 23.5 2.25784L23.5 0.843721ZM4.77523 18.0508C4.77523 22.7158 6.77821 26.9731 10.0811 30.0873C13.3713 33.1895 18.0805 35.2578 23.5 35.2578L23.5 33.8437C19.2545 33.8437 15.2137 32.2184 12.1702 29.3488C9.1393 26.4912 7.22477 22.4985 7.22477 18.0508H4.77523ZM23.5 35.2578C28.9195 35.2578 33.6287 33.1895 36.9189 30.0873C40.2218 26.9731 42.2248 22.7158 42.2248 18.0508H39.7752C39.7752 22.4985 37.8607 26.4912 34.8298 29.3488C31.7863 32.2184 27.7455 33.8437 23.5 33.8437L23.5 35.2578ZM20.511 12.1816L14.6777 17.6816L16.7668 18.42L22.6001 12.92L20.511 12.1816ZM14.6777 18.42L20.511 23.92L22.6001 23.1816L16.7668 17.6816L14.6777 18.42ZM15.7222 18.7578L31.2778 18.7578L31.2778 17.3437L15.7222 17.3437L15.7222 18.7578Z" fill="white"/>
</g>
<defs>
<filter id="filter0_d_478_46" x="0.775391" y="0.84375" width="45.4492" height="42.4141" filterUnits="userSpaceOnUse" color-interpolation-filters="sRGB">
<feFlood flood-opacity="0" result="BackgroundImageFix"/>
<feColorMatrix in="SourceAlpha" type="matrix" values="0 0 0 0 0 0 0 0 0 0 0 0 0 0 0 0 0 0 127 0" result="hardAlpha"/>
<feOffset dy="4"/>
<feGaussianBlur stdDeviation="2"/>
<feComposite in2="hardAlpha" operator="out"/>
<feColorMatrix type="matrix" values="0 0 0 0 0 0 0 0 0 0 0 0 0 0 0 0 0 0 0.25 0"/>
<feBlend mode="normal" in2="BackgroundImageFix" result="effect1_dropShadow_478_46"/>
<feBlend mode="normal" in="SourceGraphic" in2="effect1_dropShadow_478_46" result="shape"/>
</filter>
</defs>
</svg>
