<svg width="47" height="43" viewBox="0 0 47 43" fill="none" xmlns="http://www.w3.org/2000/svg">
<g filter="url(#filter0_d_0_62)">
<ellipse cx="23.5" cy="18.0508" rx="17.5" ry="16.5" fill="#D9D9D9"/>
<path d="M24.3999 22.6308C24.0467 22.9638 24.228 23.3991 24.8049 23.603C25.3818 23.8069 26.1358 23.7022 26.489 23.3692L24.3999 22.6308ZM31.2778 17.5L32.3223 17.8692C32.5626 17.6426 32.5626 17.3574 32.3223 17.1308L31.2778 17.5ZM26.489 11.6308C26.1358 11.2978 25.3818 11.1931 24.8049 11.397C24.228 11.6009 24.0467 12.0362 24.3999 12.3692L26.489 11.6308ZM15.7222 16.7929C15.0458 16.7929 14.4974 17.1095 14.4974 17.5C14.4974 17.8905 15.0458 18.2071 15.7222 18.2071L15.7222 16.7929ZM4.77523 17.5C4.77523 22.165 6.77821 26.4223 10.0811 29.5365C13.3713 32.6387 18.0805 34.7071 23.5 34.7071L23.5 33.2929C19.2545 33.2929 15.2137 31.6677 12.1702 28.798C9.1393 25.9404 7.22477 21.9477 7.22477 17.5H4.77523ZM23.5 34.7071C28.9195 34.7071 33.6287 32.6387 36.9189 29.5365C40.2218 26.4223 42.2248 22.165 42.2248 17.5H39.7752C39.7752 21.9477 37.8607 25.9404 34.8298 28.798C31.7863 31.6677 27.7455 33.2929 23.5 33.2929L23.5 34.7071ZM42.2248 17.5C42.2248 12.835 40.2218 8.57768 36.9189 5.46353C33.6287 2.36131 28.9195 0.29294 23.5 0.29294L23.5 1.70706C27.7455 1.70706 31.7863 3.33235 34.8298 6.20195C37.8607 9.05962 39.7752 13.0523 39.7752 17.5H42.2248ZM23.5 0.29294C18.0805 0.29294 13.3713 2.36131 10.0811 5.46353C6.77821 8.57768 4.77523 12.835 4.77523 17.5H7.22477C7.22477 13.0523 9.1393 9.05962 12.1702 6.20195C15.2137 3.33235 19.2545 1.70706 23.5 1.70706L23.5 0.29294ZM26.489 23.3692L32.3223 17.8692L30.2332 17.1308L24.3999 22.6308L26.489 23.3692ZM32.3223 17.1308L26.489 11.6308L24.3999 12.3692L30.2332 17.8692L32.3223 17.1308ZM31.2778 16.7929L15.7222 16.7929L15.7222 18.2071L31.2778 18.2071L31.2778 16.7929Z" fill="white"/>
</g>
<defs>
<filter id="filter0_d_0_62" x="0.775391" y="0.292969" width="45.4492" height="42.4141" filterUnits="userSpaceOnUse" color-interpolation-filters="sRGB">
<feFlood flood-opacity="0" result="BackgroundImageFix"/>
<feColorMatrix in="SourceAlpha" type="matrix" values="0 0 0 0 0 0 0 0 0 0 0 0 0 0 0 0 0 0 127 0" result="hardAlpha"/>
<feOffset dy="4"/>
<feGaussianBlur stdDeviation="2"/>
<feComposite in2="hardAlpha" operator="out"/>
<feColorMatrix type="matrix" values="0 0 0 0 0 0 0 0 0 0 0 0 0 0 0 0 0 0 0.25 0"/>
<feBlend mode="normal" in2="BackgroundImageFix" result="effect1_dropShadow_0_62"/>
<feBlend mode="normal" in="SourceGraphic" in2="effect1_dropShadow_0_62" result="shape"/>
</filter>
</defs>
</svg>
